# xmcd
# 
# Track frame offsets:
#     200
#     28940
#     43970
#     57050
#     82520
#     93965
#     107140
#     132600
#     161172
# 
# Disc length: 2321
# 
# Revision: 8
# Processed by: cddbd v1.5.2PL0 Copyright (c) Steve Scherf et al.
# Submitted via: fre:ac v1.0.31
# 
DISCID=72090f09
DTITLE=Buddy Guy - A Man And The Blues
DYEAR=1987
DGENRE=Blues
TTITLE0=A Man And The Blues
TTITLE1=I Can't Quit The Blues
TTITLE2=Money (That's What I Want)
TTITLE3=One Room Country Shack
TTITLE4=Mary Had A Little Lamb
TTITLE5=Just Playing My Axe
TTITLE6=Sweet Little Angel
TTITLE7=Worry, Worry
TTITLE8=Jam On A Monday Morning
EXTD=YEAR: 1987
EXTT0=
EXTT1=
EXTT2=
EXTT3=
EXTT4=
EXTT5=
EXTT6=
EXTT7=
EXTT8=
PLAYORDER=
